<svg width="198" height="62" viewBox="0 0 198 62" fill="none" xmlns="http://www.w3.org/2000/svg">
<path d="M14.5641 44V9.98609H26.782C31.1583 9.98609 34.4834 10.7882 36.7572 12.3923C39.0466 13.9964 40.1913 16.3248 40.1913 19.3773C40.1913 21.1372 39.7864 22.6401 38.9765 23.886C38.1667 25.1319 36.9753 26.0508 35.4023 26.6426C37.1777 27.1099 38.5405 27.982 39.4905 29.2591C40.4405 30.5362 40.9155 32.0936 40.9155 33.9313C40.9155 37.2642 39.8565 39.7716 37.7384 41.4536C35.6359 43.1201 32.5133 43.9689 28.3706 44H14.5641ZM22.7639 29.5394V37.6925H28.1369C29.6165 37.6925 30.7534 37.3576 31.5477 36.6879C32.342 36.0027 32.7391 35.0449 32.7391 33.8145C32.7391 30.98 31.3296 29.555 28.5107 29.5394H22.7639ZM22.7639 24.1663H27.039C28.83 24.1508 30.1071 23.8237 30.8702 23.1852C31.6333 22.5466 32.0149 21.6044 32.0149 20.3585C32.0149 18.9256 31.6022 17.8977 30.7768 17.2748C29.9513 16.6362 28.6197 16.317 26.782 16.317H22.7639V24.1663ZM58.086 31.9923H53.6474V44H45.4476V9.98609H58.8336C62.8673 9.98609 66.021 10.8816 68.2949 12.6726C70.5687 14.4637 71.7056 16.9945 71.7056 20.265C71.7056 22.6323 71.2228 24.5946 70.2572 26.152C69.3072 27.7095 67.8121 28.971 65.7718 29.9366L72.8736 43.6496V44H64.0898L58.086 31.9923ZM53.6474 25.6615H58.8336C60.391 25.6615 61.559 25.2565 62.3377 24.4467C63.132 23.6212 63.5292 22.4765 63.5292 21.0126C63.5292 19.5486 63.132 18.4039 62.3377 17.5785C61.5435 16.7375 60.3754 16.317 58.8336 16.317H53.6474V25.6615ZM95.9779 37.6458H84.7411L82.7788 44H74.0183L86.4932 9.98609H94.2024L106.771 44H97.9636L95.9779 37.6458ZM86.7035 31.3149H94.0155L90.3478 19.5175L86.7035 31.3149ZM137.701 44H129.548V29.7964H117.47V44H109.27V9.98609H117.47V23.4889H129.548V9.98609H137.701V44ZM151.648 44H143.471V9.98609H151.648V44ZM168.117 9.98609L175.71 33.651L183.279 9.98609H194.072V44H185.848V36.0572L186.643 19.7978L178.42 44H173L164.753 19.7744L165.548 36.0572V44H157.348V9.98609H168.117Z" fill="black"/>
<path d="M8.39456 17.884C8.40696 18.1479 8.4209 18.297 8.4209 18.4461C8.4209 26.9116 8.4209 35.3765 8.4209 43.8408C8.4209 44.2624 8.33256 44.4064 7.92802 44.4029C5.43673 44.3824 2.94493 44.3824 0.452604 44.4029C0.085265 44.4029 -0.00152969 44.2693 2.02668e-05 43.8888C0.00931998 39.535 0.00931998 35.1811 2.02668e-05 30.8273C2.02668e-05 29.8163 2.02668e-05 28.8035 2.02668e-05 27.7924C2.02668e-05 27.4188 0.0372104 27.1344 0.330151 26.8276C1.26012 25.8594 2.10795 24.8038 3.00692 23.8013C4.68862 21.9266 6.38272 20.0638 8.07217 18.1976C8.14346 18.1154 8.22251 18.0451 8.39456 17.884Z" fill="black"/>
<path d="M0.0720861 19.4468C0.0720861 19.3286 0.0503845 19.2052 0.0503845 19.0818C0.0503845 16.3828 0.0503845 13.6838 0.0503845 10.9848C0.0503845 10.6198 0.124785 10.4964 0.479724 10.4998C2.95965 10.5187 5.43957 10.5101 7.91949 10.5101C8.00319 10.5101 8.08689 10.5272 8.13959 10.5324L0.0720861 19.4468Z" fill="black"/>
</svg>
