<svg width="184" height="209" viewBox="0 0 184 209" fill="none" xmlns="http://www.w3.org/2000/svg">
<circle cx="92" cy="110.802" r="92" fill="#C0C0C0"/>
<path d="M145.951 177.329C145.951 177.329 153.713 160.501 155.62 153.234L153.658 153.025C153.658 153.025 147.089 168.331 143.635 174.262L145.951 177.329Z" fill="black"/>
<path d="M77.1006 0C77.306 0.0846463 77.5202 0.145869 77.7393 0.182509C79.8366 0.303095 81.9371 0.384574 84.0343 0.523086C86.3792 0.676264 88.5644 1.47963 90.7301 2.31559C91.5873 2.6415 92.3873 3.1157 93.2184 3.51331C93.3358 3.57291 93.4666 3.60099 93.5981 3.59478C95.8371 3.38946 98.0712 3.09125 100.315 2.9837C103.208 2.84519 106.113 2.71483 109.001 2.84193C111.849 2.96741 114.72 3.22813 117.458 4.12927C119.327 4.74524 121.131 5.56002 122.998 6.19391C124.657 6.75774 126.36 7.19609 128.05 7.69147C128.355 7.78109 128.702 7.8202 128.953 7.98316C129.204 8.14611 129.517 8.42476 129.513 8.64964C129.513 8.91689 129.22 9.1988 129.01 9.43671C128.845 9.58034 128.661 9.70144 128.464 9.79684C130.688 10.6752 132.916 11.4264 135.023 12.4351C136.403 13.095 137.584 14.1608 138.901 14.969C140.531 15.9712 142.221 16.8837 143.871 17.8582C144.761 18.3813 145.631 18.9419 146.49 19.5155C146.553 19.5783 146.599 19.6561 146.624 19.7415C146.649 19.827 146.652 19.9174 146.633 20.0043C146.527 20.1681 146.362 20.2848 146.172 20.3302C145.52 20.5095 144.869 20.6562 144.217 20.8044L144.174 21.0945C144.623 21.4009 145.038 21.7708 145.52 22.0022C147.062 22.7403 147.996 24.1206 149.122 25.2987C150.109 26.3286 151.041 27.4172 152.035 28.4356C154.929 31.4112 157.926 34.2645 159.826 38.0874C160.784 40.0184 161.992 41.8354 162.583 43.9261C162.974 45.3047 163.201 46.7338 163.444 48.1499C163.734 49.8316 164.096 51.4742 164.747 53.076C165.562 55.0983 166.214 57.1808 166.879 59.2601C167.479 61.1569 168.034 63.0717 168.508 65.0043C168.74 65.9527 168.779 66.9598 168.823 67.9375C168.836 68.2487 168.603 68.8256 168.447 68.8403C168.109 68.868 167.743 68.6186 167.397 68.4589C167.312 68.4198 167.27 68.296 167.058 67.9913C167.058 68.8892 167.037 69.5899 167.058 70.2889C167.079 70.988 167.18 71.6822 167.205 72.378C167.273 74.2145 167.368 76.0526 167.355 77.8891C167.345 79.0918 167.145 80.2927 167.07 81.4953C167.047 81.862 167.2 82.2352 167.202 82.6051C167.234 83.9434 166.914 85.2668 166.274 86.4426C166.147 86.6767 166.08 86.9389 166.08 87.2053C166.08 87.9598 165.782 88.271 164.808 87.9891C164.684 90.1075 164.54 92.1868 164.444 94.2629C164.316 97.0657 164.216 99.8718 164.118 102.676C164.053 104.431 163.995 106.186 163.955 107.943C163.931 109.115 163.719 109.3 162.443 109.044C161.391 110.759 160.325 112.506 159.244 114.259L159.473 114.43C160.485 113.941 161.482 113.418 162.515 112.98C163.127 112.711 163.791 112.584 164.458 112.607C165.126 112.629 165.78 112.802 166.372 113.111C166.964 113.421 167.479 113.859 167.878 114.394C168.278 114.93 168.552 115.548 168.681 116.203C169.113 118.261 168.919 120.336 168.58 122.408C168.091 125.423 167.656 128.449 167.241 131.475C166.863 134.431 166.156 137.334 165.134 140.133C164.319 142.287 163.744 144.533 162.88 146.651C162.368 147.912 161.598 149.096 160.775 150.194C159.75 151.554 158.493 152.744 157.436 154.082C155.676 156.296 153.313 156.813 150.645 156.873C148.799 156.916 147.386 156.068 145.722 155.03C145.168 157.162 144.598 159.15 144.14 161.162C142.982 166.253 141.196 171.08 138.313 175.462C137.091 177.319 135.966 179.26 134.581 180.989C133.343 182.568 131.925 183.998 130.357 185.25C126.789 188.035 123.099 190.669 119.417 193.305C117.642 194.602 115.798 195.802 113.894 196.9C112.388 197.756 110.795 198.45 109.142 198.969C106.09 199.915 103.001 200.762 99.8849 201.464C97.8072 201.935 95.6611 202.128 93.5394 202.383C90.9322 202.698 88.4227 202.046 86.0435 201.181C81.4319 199.509 76.8545 197.715 72.3716 195.725C70.5498 194.91 68.9659 193.525 67.3624 192.285C65.2 190.608 63.1582 188.775 60.9974 187.097C58.969 185.499 57.1887 183.609 55.7144 181.489C54.1011 179.208 52.4194 176.967 50.9708 174.585C49.6932 172.484 48.823 170.135 47.5487 168.033C45.7318 165.036 44.8763 161.7 43.8008 158.436C43.1929 156.583 42.6389 154.708 42.1712 152.817C41.6465 150.723 41.2424 148.602 40.7861 146.491C40.7682 146.413 40.7437 146.338 40.6688 146.065C39.7627 146.465 38.8225 146.741 38.037 147.254C36.1419 148.493 34.2288 148.828 32.1055 147.888C28.8464 146.443 25.9979 144.391 23.3662 142.009C21.1712 140.024 19.716 137.539 18.7546 134.814C18.1875 133.204 18.1223 131.42 17.7769 129.723C17.3548 127.633 16.9621 125.527 16.4113 123.471C15.6079 120.507 14.8714 117.554 15.1191 114.443C15.2641 112.636 15.1549 110.778 15.5346 109.025C15.9512 107.145 16.6085 105.327 17.4901 103.615C18.2951 102.047 19.9458 101.394 21.634 101.008C23.7817 100.519 25.7079 101.216 27.577 102.187L27.7644 102.05C27.238 101.097 26.6954 100.152 26.1935 99.1857C26.0637 98.9021 25.9864 98.5974 25.9653 98.2862C25.7926 96.6338 25.5889 94.9831 25.4928 93.3259C25.382 91.4111 25.4211 89.4866 25.2826 87.5735C25.2451 87.0374 25.4276 86.2699 24.5916 85.9701C24.4417 85.9163 24.3928 85.4959 24.3472 85.2368C24.1006 83.9049 23.8687 82.5681 23.6514 81.2265C23.5348 80.6505 23.4624 80.0665 23.4347 79.4796C23.4102 76.4714 23.2391 73.4503 23.4721 70.4633C23.653 68.1444 24.3081 65.8566 24.841 63.5752C25.0935 62.4932 25.5612 61.4568 25.9148 60.4008C26.0389 60.1071 26.1059 59.7924 26.112 59.4736C25.9963 57.7479 26.4884 56.1298 26.948 54.5084C27.4368 52.7746 27.9844 51.0537 28.5058 49.3248C27.3276 48.9174 27.3537 48.7854 28.1278 47.5991C29.3972 45.6567 30.5721 43.654 31.7845 41.6708C33.4629 38.9169 35.1201 36.1483 36.8132 33.4025C37.7649 31.8593 38.7312 30.3243 39.7595 28.8316C40.7486 27.3992 41.8257 26.0271 42.8686 24.6225L41.7606 24.5182C42.0148 24.0815 42.1288 23.6431 42.4124 23.4427C44.4803 21.9761 46.5237 20.4671 48.6878 19.1537C51.4173 17.4981 54.2641 16.0348 57.0425 14.4574C60.7366 12.3618 64.7013 10.8838 68.6807 9.4693C69.3325 9.23954 70.0006 9.09288 70.7991 8.86963C70.6367 8.85107 70.4764 8.8178 70.32 8.77023C70.087 8.65616 69.8637 8.51765 69.6372 8.38892C69.8263 8.16404 69.9745 7.81206 70.2108 7.7371C71.578 7.30201 72.968 6.94025 74.345 6.54101C74.9483 6.38008 75.5312 6.15044 76.0821 5.8566C75.81 5.7963 75.5346 5.67409 75.2673 5.69364C72.779 5.81423 70.3347 5.49484 67.8936 5.0516C67.1049 4.9082 66.282 4.96361 65.4868 4.84628C65.2212 4.80717 64.9979 4.50896 64.7502 4.32808C64.9686 4.14883 65.169 3.83922 65.4102 3.80988C67.8138 3.44812 70.2255 3.14014 72.6323 2.79956C74.9536 2.47701 77.3145 2.58751 79.5954 3.12547C79.7095 3.15155 79.8398 3.10592 80.156 3.07496C78.6714 2.19011 77.3059 1.50244 75.7562 1.30038C74.7785 1.17164 74.6807 1.04617 74.9919 0.0130367L77.1006 0ZM151.312 126.218C151.469 127.541 151.224 128.881 150.609 130.062C150.447 130.388 150.513 130.805 150.468 131.18C150.332 132.306 150.249 133.442 150.046 134.555C149.672 136.603 149.213 138.629 148.817 140.682C148.643 141.587 148.571 142.512 148.39 143.415C147.748 146.627 147.07 149.832 146.435 153.046C146.381 153.318 146.435 153.798 146.598 153.898C147.789 154.59 148.823 155.69 150.409 155.454C150.807 155.394 151.224 155.454 151.628 155.454C153.598 155.387 155.231 154.68 156.474 153.077C157.421 151.858 158.549 150.774 159.469 149.537C160.284 148.439 161.114 147.285 161.612 146.029C162.616 143.488 163.445 140.876 164.252 138.266C164.578 137.188 164.713 136.04 164.86 134.915C165.403 130.776 165.944 126.637 166.424 122.49C166.645 120.718 166.767 118.935 166.789 117.15C166.789 115.491 165.627 114.399 163.949 114.279C162.451 114.171 161.162 114.867 159.831 115.395C159.504 115.517 159.206 115.704 158.956 115.947C158.705 116.189 158.507 116.48 158.374 116.803C158.065 117.478 157.698 118.126 157.278 118.739C156.613 119.738 155.879 120.694 155.208 121.685C154.289 123.047 153.389 124.421 152.508 125.808C152.197 126.297 151.82 126.435 151.296 126.238C151.211 126.006 151.02 125.749 151.058 125.544C151.335 123.948 151.455 122.361 151.221 120.74C151.058 119.576 151.043 118.388 150.965 117.212C149.751 117.2 149.594 117.024 149.743 115.83C149.775 115.566 149.857 115.308 149.896 115.044C150.194 113.037 150.484 111.028 150.784 109.015C151.027 107.386 151.38 105.756 151.502 104.105C151.665 101.977 151.652 99.8359 151.682 97.6996C151.682 97.0966 151.574 96.4921 151.519 95.9071C150.256 95.8256 150.266 95.78 150.427 94.5692C150.655 92.8582 151.079 91.17 151.444 89.4801C151.876 87.51 152.343 85.5464 152.806 83.529C152.073 83.529 151.96 83.0206 152.034 82.4405C152.197 81.1368 152.378 79.8462 152.589 78.554C152.752 77.5567 153.01 76.5741 153.16 75.5752C153.437 73.7257 153.649 71.868 153.917 70.0184C154.08 68.9364 154.261 67.8577 154.47 66.7838C154.664 65.7946 154.796 64.7729 155.149 63.8376C155.588 62.6724 156.026 61.5448 155.936 60.2623C155.844 58.9179 155.774 57.5671 155.774 56.2194C155.774 54.6225 155.058 53.4345 153.831 52.5269C153.191 52.0543 152.739 51.5801 153.091 50.8419C151.721 50.1037 150.416 49.3884 149.097 48.6942C147.117 47.6513 145.273 46.3264 143.03 45.8343C142.144 45.6404 141.976 45.0961 142.574 44.4003C142.809 44.1554 143.06 43.9262 143.325 43.7143C141.707 43.3802 140.114 43.0901 138.543 42.7088C137.971 42.5703 137.273 42.3683 137.547 41.4313C136.309 41.4313 135.143 41.4508 133.978 41.4313C132.725 41.4052 132.548 41.2683 132.398 40.4535H117.732L117.543 40.2352C117.737 40.0087 117.891 39.7219 118.133 39.5671C118.819 39.1287 119.541 38.7425 120.251 38.3368C118.793 38.5729 117.35 38.8995 115.933 39.3145C112.007 40.3851 107.958 40.535 103.942 40.944C102.214 41.1233 100.47 41.2699 98.7735 41.6333C96.0398 42.222 93.2451 42.4797 90.4498 42.4008C90.2916 42.3868 90.1343 42.3634 89.9789 42.3308V41.5372C93.075 41.0239 95.7345 39.541 98.4525 38.1982C97.1913 38.6529 95.9821 39.2884 94.6948 39.6094C91.0511 40.5155 87.3781 41.3074 83.71 42.1173C81.8882 42.5182 80.0598 42.8881 78.2233 43.2156C76.4634 43.5301 74.6856 43.7436 72.9257 44.0548C71.2489 44.3498 69.7334 45.0717 68.2717 45.9321C68.1288 46.0121 67.9708 46.0614 67.8077 46.0768C67.6447 46.0922 67.4803 46.0735 67.3249 46.0217C67.175 45.9533 67.2059 45.4628 67.1782 45.1597C67.1947 45.0177 67.2298 44.8786 67.2825 44.7458C67.0251 44.9299 66.854 45.0554 66.6796 45.1776C64.5987 46.6295 62.5308 48.101 60.4254 49.5187C59.6693 50.0288 58.9197 51.0407 57.8931 49.8446C57.3847 50.4133 56.9463 50.956 56.4574 51.4481C54.8703 53.0434 53.2766 54.6322 51.6568 56.1933C51.4189 56.4231 50.8942 56.4052 50.7296 56.6545C49.5123 58.4926 48.0327 60.2477 47.257 62.2667C46.3901 64.5252 46.0919 67.0201 45.7106 69.4367C45.4173 71.2944 44.8355 72.9679 43.6362 74.4215C43.5628 74.5095 43.5791 74.6773 43.5645 74.8109C43.4504 75.9304 43.3298 77.0499 43.2386 78.1711C43.0169 80.6838 42.7285 83.1933 42.6193 85.7093C42.533 87.6876 41.4346 89.3481 41.1299 91.2417C41.1206 91.323 41.0796 91.3973 41.0158 91.4486C40.1261 91.9375 40.4129 92.8761 40.3836 93.5556C40.32 95.0483 40.6362 96.554 40.6166 98.0532C40.5775 101.184 40.4194 104.314 40.3119 107.446C40.3149 107.527 40.3106 107.608 40.2988 107.689C39.5851 110.829 40.1359 113.951 40.4488 117.073C40.496 117.549 40.4814 117.987 39.986 118.15C39.4906 118.313 39.1158 118.087 38.8893 117.583C38.6628 117.08 38.3646 116.643 38.1283 116.159C37.4439 114.75 36.7741 113.333 36.0946 111.912C35.5406 112.499 34.9702 112.475 34.703 111.885C33.8209 109.929 32.9338 107.982 32.0419 106.043L31.7258 106.357C30.7024 105.903 29.6481 105.503 28.6622 104.977C27.5916 104.405 26.6351 103.603 25.5384 103.1C22.2532 101.591 19.5091 102.65 18.0246 105.924C17.5161 107.055 16.8431 108.192 16.6802 109.385C16.1294 113.434 15.9127 117.533 17.1544 121.493C18.2136 124.912 18.9437 128.425 19.3347 131.984C19.5791 134.133 20.4086 136.077 21.5721 137.868C24.3847 142.191 28.4911 144.908 33.1125 146.927C34.2532 147.425 35.433 147.316 36.5541 146.653C37.3679 146.172 38.2153 145.751 39.0897 145.393C39.9762 145.031 40.9083 144.777 41.8241 144.492C41.9871 144.443 42.2429 144.412 42.3309 144.492C42.3809 144.566 42.4129 144.651 42.4242 144.739C42.4356 144.828 42.4259 144.918 42.3961 145.002C42.3138 145.233 42.1646 145.434 41.9675 145.579C41.3157 145.977 41.3157 146.516 41.5422 147.13C42.2038 148.941 42.8801 150.733 43.5319 152.54C44.0675 154.045 44.578 155.557 45.0637 157.077C45.3423 157.955 45.515 158.87 45.7839 159.746C46.7486 162.895 47.9985 165.914 49.6948 168.75C50.5862 170.236 51.2185 171.885 52.1701 173.325C53.785 175.77 55.5351 178.123 57.2771 180.481C58.6926 182.409 60.3666 184.133 62.2521 185.606C64.584 187.419 66.792 189.391 69.1125 191.223C70.3412 192.2 71.5911 193.248 73.0071 193.856C77.4656 195.767 81.9697 197.578 86.5324 199.233C88.5498 199.967 90.6698 200.627 92.8876 200.418C94.5889 200.255 96.2983 200.104 97.9783 199.805C101.351 199.229 104.674 198.392 107.919 197.304C110.257 196.507 112.47 195.564 114.507 194.182C116.011 193.16 117.565 192.208 119.035 191.139C121.69 189.21 124.234 187.121 126.944 185.273C129.903 183.252 132.461 180.906 134.332 177.821C135.626 175.688 137.202 173.705 138.321 171.489C140.102 167.944 141.457 164.2 142.357 160.336C142.605 159.282 142.846 158.218 143.122 157.175C143.774 154.66 144.471 152.157 145.111 149.64C145.465 148.25 145.724 146.835 146.058 145.439C146.278 144.518 146.599 143.62 146.8 142.695C147.269 140.526 147.605 138.324 148.155 136.176C148.955 133.059 149.889 129.976 150.792 126.888C150.865 126.634 151.136 126.438 151.312 126.218Z" fill="black"/>
<path d="M151.314 126.217C151.136 126.438 150.865 126.634 150.79 126.886C149.888 129.983 148.954 133.059 148.154 136.175C147.603 138.323 147.267 140.524 146.798 142.693C146.598 143.619 146.277 144.517 146.057 145.437C145.723 146.834 145.464 148.248 145.11 149.638C144.469 152.156 143.777 154.659 143.12 157.173C142.846 158.223 142.604 159.28 142.356 160.335C141.455 164.198 140.1 167.942 138.32 171.487C137.2 173.703 135.624 175.687 134.33 177.82C132.46 180.904 129.901 183.251 126.942 185.272C124.232 187.121 121.688 189.21 119.034 191.138C117.567 192.207 116.009 193.159 114.505 194.18C112.468 195.562 110.255 196.506 107.917 197.302C104.673 198.391 101.35 199.227 97.9768 199.804C96.2968 200.102 94.5874 200.258 92.8861 200.417C90.6618 200.625 88.5418 199.965 86.5309 199.232C81.9682 197.575 77.4641 195.764 73.0056 193.854C71.5896 193.247 70.3397 192.192 69.111 191.221C66.7905 189.389 64.5825 187.418 62.2506 185.604C60.3657 184.132 58.6922 182.407 57.2772 180.479C55.5353 178.121 53.7851 175.766 52.1702 173.324C51.2186 171.883 50.5863 170.228 49.695 168.748C47.9953 165.913 46.7455 162.893 45.784 159.745C45.5152 158.865 45.3424 157.952 45.0638 157.075C44.5814 155.555 44.0708 154.042 43.532 152.539C42.8802 150.73 42.2055 148.936 41.5423 147.134C41.3158 146.519 41.3191 145.98 41.9676 145.582C42.1647 145.437 42.314 145.236 42.3962 145.005C42.426 144.921 42.4357 144.831 42.4244 144.743C42.413 144.654 42.3811 144.569 42.331 144.495C42.243 144.407 41.9856 144.438 41.8242 144.495C40.9084 144.781 39.9763 145.035 39.0899 145.396C38.2154 145.755 37.3681 146.176 36.5543 146.656C35.4331 147.319 34.2534 147.429 33.1127 146.93C28.4913 144.911 24.3848 142.194 21.5722 137.871C20.4087 136.079 19.5793 134.136 19.3348 131.987C18.9439 128.428 18.2138 124.915 17.1545 121.496C15.9128 117.543 16.1295 113.438 16.6803 109.388C16.8433 108.196 17.5163 107.058 18.0247 105.927C19.5027 102.653 22.2615 101.594 25.5385 103.103C26.6352 103.607 27.5918 104.407 28.6624 104.98C29.6483 105.507 30.7026 105.906 31.7259 106.361L32.0421 106.046C32.9296 107.993 33.8166 109.94 34.7031 111.888C34.9704 112.478 35.5407 112.502 36.0947 111.916C36.7743 113.337 37.444 114.753 38.1284 116.162C38.3647 116.651 38.6694 117.096 38.8894 117.587C39.1094 118.077 39.4875 118.315 39.9861 118.154C40.4847 117.992 40.4962 117.552 40.4489 117.077C40.123 113.954 39.5852 110.832 40.299 107.692C40.3107 107.612 40.3151 107.53 40.312 107.449C40.4196 104.317 40.5776 101.187 40.6167 98.0565C40.6363 96.5573 40.3202 95.0516 40.3837 93.5589C40.413 92.8794 40.1262 91.9408 41.016 91.4519C41.0797 91.4006 41.1207 91.3263 41.1301 91.245C41.4348 89.3514 42.5331 87.6909 42.6195 85.7126C42.7286 83.1966 43.0171 80.6871 43.2387 78.1744C43.3381 77.0532 43.4587 75.9337 43.5646 74.8142C43.5793 74.6806 43.5646 74.5128 43.6363 74.4248C44.8356 72.9712 45.4174 71.2977 45.7107 69.44C46.092 67.0217 46.3902 64.5269 47.2571 62.27C48.0328 60.251 49.5124 58.4959 50.7297 56.6578C50.8927 56.4085 51.419 56.4264 51.6569 56.1966C53.2767 54.6355 54.8704 53.0467 56.4576 51.4514C56.9464 50.9625 57.3848 50.4166 57.8932 49.8479C58.9198 51.0489 59.6694 50.037 60.4255 49.522C62.5309 48.1043 64.5988 46.6328 66.6797 45.1809C66.8541 45.0587 67.0252 44.9332 67.2827 44.7491C67.2299 44.8819 67.1948 45.021 67.1784 45.163C67.2061 45.4661 67.1784 45.9566 67.325 46.025C67.4804 46.0768 67.6449 46.0955 67.8079 46.0801C67.9709 46.0647 68.1289 46.0154 68.2718 45.9354C69.7384 45.075 71.249 44.3531 72.9258 44.0581C74.6857 43.7469 76.4635 43.5334 78.2235 43.2189C80.06 42.893 81.8883 42.5215 83.7101 42.1206C87.3783 41.3058 91.0431 40.5188 94.6949 39.6127C95.9823 39.2868 97.1914 38.6562 98.4527 38.2015C95.7281 39.5443 93.0605 41.0272 89.979 41.5405V42.3357C90.1345 42.3684 90.2917 42.3918 90.45 42.4058C93.2454 42.4835 96.0401 42.2247 98.7737 41.635C100.47 41.2765 102.214 41.1249 103.943 40.9457C107.958 40.5302 112.007 40.3802 115.933 39.3161C117.351 38.9011 118.793 38.5746 120.251 38.3384C119.544 38.7442 118.822 39.1304 118.133 39.5687C117.892 39.7235 117.737 40.0103 117.543 40.2368L117.732 40.4552H132.398C132.548 41.2586 132.724 41.402 133.978 41.4329C135.144 41.4574 136.309 41.4329 137.547 41.4329C137.273 42.3699 137.971 42.5736 138.543 42.7105C140.114 43.0918 141.707 43.3819 143.326 43.7159C143.06 43.9279 142.809 44.157 142.574 44.402C141.976 45.0978 142.144 45.6421 143.031 45.836C145.273 46.3248 147.117 47.6529 149.097 48.6958C150.416 49.39 151.721 50.1054 153.091 50.8436C152.739 51.5818 153.191 52.056 153.831 52.5285C155.058 53.4362 155.787 54.6241 155.774 56.2211C155.774 57.5687 155.84 58.9196 155.937 60.264C156.026 61.5464 155.588 62.6741 155.15 63.8392C154.798 64.7746 154.661 65.7947 154.47 66.7854C154.261 67.8593 154.074 68.9381 153.918 70.0201C153.65 71.8696 153.429 73.7273 153.16 75.5769C153.01 76.5758 152.752 77.5584 152.59 78.5557C152.378 79.8479 152.198 81.1434 152.034 82.4421C151.961 83.0223 152.073 83.5307 152.806 83.5307C152.343 85.5481 151.876 87.5117 151.444 89.4818C151.074 91.1716 150.655 92.8598 150.427 94.5709C150.264 95.7816 150.264 95.8273 151.519 95.9087C151.574 96.4937 151.682 97.0983 151.682 97.7012C151.653 99.8376 151.661 101.979 151.503 104.107C151.38 105.753 151.027 107.381 150.784 109.017C150.484 111.026 150.194 113.035 149.896 115.046C149.857 115.31 149.775 115.568 149.743 115.832C149.594 117.026 149.743 117.202 150.965 117.213C151.043 118.39 151.051 119.578 151.221 120.741C151.455 122.371 151.335 123.95 151.058 125.545C151.02 125.757 151.211 126.008 151.296 126.24L151.314 126.217ZM99.4483 177.513C102.258 177.562 105.033 176.889 107.508 175.558C108.944 174.792 110.353 173.98 111.761 173.166C113.702 172.041 115.108 170.355 116.467 168.624C117.259 167.614 118.056 166.607 118.816 165.572C118.887 165.474 118.773 165.114 118.64 165.013C117.978 164.506 117.246 164.087 116.601 163.561C115.384 162.569 114.22 161.513 113.016 160.506C112.289 159.897 111.543 159.312 110.777 158.751C109.053 157.488 107.334 156.215 105.562 155.017C105.107 154.72 104.563 154.587 104.021 154.641C102.58 154.854 101.127 155.105 99.7514 155.562C98.9578 155.826 98.4739 155.725 97.8937 155.215C97.0284 154.452 95.9888 153.911 94.8351 154.3C92.5537 155.061 90.2072 155.736 88.0871 156.831C84.7873 158.539 81.7025 160.633 79.1963 163.454C79.064 163.59 78.9158 163.71 78.7547 163.81C77.6776 164.562 77.6499 164.83 78.5706 165.746C78.7203 165.903 78.8804 166.05 79.0496 166.186C80.3143 167.13 81.292 168.406 81.8736 169.872C82.752 172.023 84.2674 173.682 86.4364 174.626C90.5868 176.434 94.941 177.324 99.4483 177.513ZM128.736 105.026C127.553 105.156 126.349 105.189 125.19 105.438C123.279 105.842 121.397 106.382 119.906 107.772C118.415 109.162 117.391 110.868 116.497 112.678C116.242 113.19 116.464 113.311 116.863 113.399C117.419 113.521 117.983 113.611 118.537 113.739C120.743 114.256 122.924 114.958 125.158 115.261C127.67 115.602 130.229 115.628 132.769 115.711C134.073 115.753 135.307 115.436 136.556 114.963C138.023 114.411 139.613 114.218 141.15 113.866C142.045 113.661 142.268 113.281 141.685 112.608C140.808 111.595 139.68 110.795 138.839 109.758C137.418 108.01 135.509 107.061 133.586 106.045C132.1 105.247 130.417 104.894 128.736 105.026ZM58.9508 109.788L59.2197 109.928C59.3826 109.84 59.5847 109.789 59.6857 109.657C60.1534 109.049 60.7009 109.098 61.3332 109.349C62.7444 109.911 64.167 110.446 65.5863 110.979C65.9383 111.112 66.2952 111.282 66.6618 111.318C68.5977 111.508 70.5336 111.723 72.4744 111.807C74.3125 111.891 76.167 111.95 77.9937 111.795C79.6575 111.653 81.2935 111.199 82.9443 110.905C83.5961 110.791 84.2479 110.743 84.9763 110.656C84.1485 108.301 83.2783 106.131 81.5217 104.571C78.9519 102.29 75.8622 101.34 72.4255 101.72C71.2979 101.844 70.1996 102.241 69.0719 102.35C66.1175 102.636 63.9372 104.41 61.7389 106.098C60.8329 106.797 60.1241 107.764 59.3859 108.658C59.1431 108.966 59.0893 109.411 58.9508 109.788ZM86.0632 94.4242C85.9204 92.8116 85.3643 91.2631 84.4483 89.9283C84.2854 89.6855 84.0866 89.4003 83.8373 89.3009C82.5043 88.7729 81.1811 88.0234 79.796 87.8669C77.381 87.5915 74.9236 87.6486 72.4842 87.6518C69.7042 87.6518 67.0268 88.3167 64.4473 89.2911C61.7161 90.3226 58.5809 90.5328 56.601 93.1466C56.0062 93.9305 55.2973 95.3954 56.1463 96.6208C56.2979 96.3715 56.4168 96.1564 56.5521 95.9527C57.4614 94.5725 58.796 93.8555 60.375 93.5475C61.6281 93.3031 62.8943 93.1189 64.1474 92.868C66.8362 92.3319 69.4972 91.6556 72.2952 91.9229C74.6189 92.1445 76.9834 92.0858 79.2761 92.4818C81.3033 92.8273 83.2539 93.6225 85.2403 94.2124C85.4798 94.2857 85.7275 94.3378 86.0632 94.4242ZM147.171 97.5008C147.219 97.359 147.303 97.1488 147.357 96.9321C147.707 95.5111 146.12 93.3569 145.108 92.9055C143.052 91.9864 140.92 91.2303 138.8 90.4612C135.398 89.2344 131.807 88.6145 128.19 88.6295C127.548 88.6295 126.905 88.7925 126.264 88.7729C124.798 88.7436 123.362 88.7909 121.969 89.2797C120.575 89.7686 119.053 90.0945 118.312 91.5204C117.678 92.7409 117.008 93.9973 117.078 95.5486C117.355 95.4802 117.603 95.428 117.844 95.3563C119.831 94.7632 121.781 93.9614 123.808 93.6257C126.183 93.2314 128.63 93.2998 131.034 93.057C132.712 92.8941 134.329 93.1466 135.96 93.4057C137.329 93.6225 138.704 93.8066 140.065 94.0576C141.918 94.4079 143.813 94.6654 145.38 95.8501C146.014 96.3438 146.563 96.937 147.171 97.5008ZM87.5298 129.549C87.4891 129.486 87.4483 129.422 87.406 129.358C87.0458 129.502 86.614 129.564 86.337 129.803C84.4972 131.382 83.482 133.522 82.8791 135.764C82.4831 137.244 82.6184 138.891 82.664 140.459C82.7031 141.763 83.1365 142.975 84.1974 143.847C86.3158 145.594 90.155 145.084 91.7829 142.882C92.7118 141.627 94.1132 141.415 95.5439 141.347C95.758 141.369 95.9568 141.468 96.1029 141.626C98.3256 143.826 101.177 143.218 103.855 143.374C103.957 143.374 104.068 143.281 104.166 143.293C104.544 143.34 104.963 143.325 105.285 143.492C106.387 144.06 107.418 144.774 108.544 145.284C112.237 146.977 115.56 144.702 116.958 141.505C118.587 137.757 116.264 133.385 112.819 131.746C112.668 131.703 112.511 131.685 112.354 131.692C112.744 132.222 113.21 132.578 113.64 132.974C115.025 134.247 115.395 136.009 115.802 137.715C116.541 140.811 113.987 143.757 111.566 144.287C109.447 144.753 107.744 143.83 105.835 142.84C107.567 142.616 109.116 142.437 110.658 142.198C110.959 142.15 111.439 141.888 111.46 141.684C111.499 141.344 111.328 140.777 111.074 140.653C110.533 140.391 109.938 140.264 109.338 140.281C107.448 140.364 105.58 140.79 104.001 141.802C102.877 142.522 101.782 142.677 100.55 142.633C99.0198 142.577 97.8644 141.688 96.6651 140.91C94.7308 139.657 92.5586 139.607 90.3946 139.721C89.016 139.797 88.4554 141.381 89.306 142.48C89.526 142.763 89.777 143.022 90.142 143.439C89.06 143.371 88.167 143.351 87.2837 143.252C85.2175 143.022 84.3506 142.089 84.3066 140.003C84.2789 138.862 84.3864 137.721 84.3489 136.581C84.2691 134.109 85.1344 132.044 86.8829 130.322C87.1114 130.075 87.3273 129.817 87.5298 129.549V129.549ZM35.8731 122.216L36.085 121.998C35.9745 121.684 35.8416 121.378 35.6874 121.084C34.2762 118.771 32.8177 116.487 31.4375 114.158C29.1561 110.309 26.1072 107.201 22.431 104.684C21.9731 104.369 21.4207 104.14 21.0182 104.576C20.2392 105.425 19.3886 106.291 18.8998 107.306C18.085 108.981 17.8585 110.844 17.9595 112.708C18.0882 115.056 18.0573 117.414 18.9992 119.666C19.941 121.918 20.3142 124.273 20.4527 126.697C20.588 129.062 20.9742 131.407 22.0937 133.542C23.3973 136.02 25.4196 137.795 27.9063 139.043C28.5047 139.356 29.1374 139.599 29.7917 139.766C30.1762 139.858 30.6195 139.696 31.0383 139.649C29.6091 138.816 28.2827 138.057 26.9644 137.276C24.3962 135.756 22.8775 133.489 22.1686 130.613C21.5331 128.04 21.2365 125.5 22.1931 122.927C22.4754 122.161 22.6258 121.352 22.6379 120.536C22.6673 116.951 22.6249 113.381 22.5988 109.804C22.5776 109.576 22.5356 109.35 22.4734 109.129C22.2452 111.518 22.2468 113.899 22.0937 116.272C21.9405 118.644 21.6961 121.01 20.8813 123.433C20.6825 122.681 20.526 122.107 20.381 121.532C19.9801 119.93 19.4326 118.348 19.224 116.721C19.0076 114.917 18.9531 113.096 19.0611 111.282C19.1735 109.106 19.7341 107.045 21.6684 105.59C22.343 106.113 22.9867 106.698 23.7118 107.158C25.5825 108.339 27.067 109.928 28.3137 111.704C30.1827 114.36 31.8987 117.129 33.6798 119.852C34.0313 120.431 34.42 120.988 34.8433 121.517C35.1121 121.814 35.5293 121.98 35.8731 122.216ZM37.9492 139.216C37.9492 139.258 37.9606 139.48 37.871 139.542C37.2191 139.99 36.5852 140.568 35.8519 140.793C34.838 141.082 33.7903 141.235 32.7362 141.248C31.2126 141.29 29.6808 141.204 28.4424 140.097C28.3035 140.008 28.1518 139.941 27.9926 139.898C28.7325 141.235 29.865 141.97 31.3234 142.031C32.619 142.067 33.9156 142.028 35.2066 141.914C36.5005 141.82 37.5776 141.215 38.4837 140.285C38.9171 139.843 39.1616 139.352 38.9188 138.745C38.7379 138.29 38.5081 137.84 37.9296 138.383C37.8827 138.412 37.8305 138.432 37.776 138.441C37.7214 138.45 37.6656 138.448 37.6119 138.435C36.7172 138.256 35.8324 137.974 34.9296 137.904C33.916 137.824 33.1664 137.516 32.7248 136.543C32.4967 136.038 32.1398 135.591 31.8416 135.117C31.5874 135.363 31.5011 135.512 31.5059 135.657C31.5434 136.732 32.733 138.393 33.7873 138.679C34.7487 138.939 35.7525 139.058 36.7433 139.201C37.1462 139.232 37.5508 139.234 37.9541 139.207L37.9492 139.216ZM60.4858 103.067C60.5347 103.183 60.5852 103.297 60.6341 103.413C61.7748 102.961 62.9513 102.574 64.0562 102.049C66.3049 100.985 68.6042 100.37 71.1317 100.582C75.3049 100.942 79.1735 102.072 82.5287 104.674C82.631 104.734 82.7405 104.781 82.8546 104.814L83.0078 104.624C82.4733 104.114 82.0154 103.458 81.388 103.123C79.5287 102.127 77.658 101.109 75.6846 100.379C73.1165 99.4147 70.2876 99.4049 67.7129 100.351C65.5684 101.111 63.4261 101.878 61.2859 102.652C61.0126 102.771 60.747 102.907 60.4907 103.059L60.4858 103.067ZM141.148 108.256L141.334 107.953C141.066 107.766 140.787 107.595 140.498 107.441C138.442 106.463 136.379 105.51 134.321 104.542C132.484 103.682 130.537 103.401 128.541 103.538C125.591 103.729 122.901 104.821 120.308 106.146C119.733 106.441 119.295 106.999 118.793 107.438L118.944 107.619C119.066 107.574 119.185 107.52 119.298 107.456C122.208 105.605 125.422 104.778 128.832 104.523C132.158 104.27 135.238 104.848 138.06 106.719C139.024 107.343 140.128 107.743 141.161 108.248L141.148 108.256ZM81.8101 113.241L64.7406 114.002C66.1192 115.603 78.3685 114.534 81.8101 113.241ZM120.98 115.155C123.571 117.653 134.845 118.501 136.913 116.542C134.283 116.625 131.585 116.954 128.928 116.723C126.258 116.49 123.629 115.698 120.98 115.155ZM37.6656 120.686L37.4 120.587C37.2696 120.872 37.1246 121.152 37.0089 121.444C36.6309 122.402 36.23 123.308 35.3794 124.009C34.972 124.346 34.7113 125.024 34.6412 125.58C34.2811 128.426 35.7167 130.571 37.5565 132.507C37.7194 132.67 38.1333 132.605 38.4315 132.645L38.4674 132.394C38.3712 132.305 38.2669 132.22 38.1789 132.122C36.7123 130.493 35.4315 128.769 35.3712 126.437C35.3415 125.991 35.4169 125.546 35.5913 125.135C35.7656 124.724 36.0341 124.36 36.375 124.072C37.3739 123.179 37.6477 121.96 37.6656 120.686ZM31.0366 119.772L30.8623 119.671C30.7849 119.736 30.711 119.805 30.6407 119.878C29.4022 121.305 28.18 122.746 26.9236 124.157C26.029 125.164 25.1768 126.182 25.1311 127.612C25.123 127.871 25.2762 128.133 25.3544 128.395C25.5271 128.192 25.8335 128.003 25.853 127.786C26.0078 126.114 27.054 125.024 28.1442 123.888C29.1105 122.879 29.8976 121.696 30.7368 120.57C30.8997 120.349 30.9405 120.037 31.0366 119.772ZM29.6189 135.683C29.0127 135.314 28.4782 135.031 27.9894 134.689C26.632 133.729 25.7602 132.358 24.8932 130.983C24.7156 130.701 24.4207 130.494 24.1811 130.253L23.9872 130.437C24.1632 130.825 24.3229 131.221 24.5217 131.597C25.3234 133.113 26.2148 134.563 27.6749 135.551C28.2322 135.922 28.8107 136.291 29.6189 135.679V135.683ZM29.8829 131.702C31.3821 131.032 32.9791 127.616 32.3647 126.777L29.8829 131.702Z" fill="white"/>
<path d="M151.301 126.231C151.826 126.429 152.202 126.29 152.513 125.801C153.395 124.416 154.295 123.042 155.213 121.678C155.885 120.684 156.618 119.723 157.283 118.732C157.703 118.119 158.07 117.472 158.38 116.796C158.512 116.474 158.71 116.183 158.961 115.94C159.212 115.698 159.51 115.51 159.836 115.388C161.168 114.86 162.457 114.165 163.954 114.272C165.633 114.393 166.803 115.484 166.795 117.143C166.772 118.929 166.65 120.712 166.43 122.483C165.941 126.631 165.408 130.77 164.865 134.909C164.719 136.033 164.59 137.182 164.257 138.259C163.451 140.866 162.628 143.474 161.618 146.022C161.119 147.279 160.291 148.432 159.475 149.531C158.554 150.767 157.426 151.851 156.48 153.07C155.236 154.673 153.603 155.381 151.633 155.448C151.228 155.462 150.818 155.394 150.414 155.448C148.829 155.689 147.794 154.584 146.603 153.891C146.44 153.792 146.38 153.311 146.44 153.039C147.077 149.826 147.755 146.62 148.395 143.408C148.576 142.506 148.648 141.58 148.822 140.676C149.218 138.631 149.678 136.602 150.051 134.549C150.255 133.436 150.338 132.3 150.473 131.174C150.519 130.799 150.455 130.374 150.615 130.056C151.23 128.874 151.475 127.535 151.319 126.212L151.301 126.231ZM155.145 124.214L155.269 124.393C155.413 124.366 155.551 124.314 155.678 124.242C157.079 123.086 158.448 121.884 159.877 120.767C160.853 119.999 161.883 119.302 162.959 118.682C163.773 118.217 164.275 118.493 164.352 119.448C164.415 120.236 164.394 121.1 164.135 121.833C163.198 124.483 162.934 127.222 162.877 129.992C162.832 132.244 162.889 134.498 162.861 136.75C162.83 137.291 162.742 137.828 162.598 138.35C161.924 141.283 160.405 143.826 158.836 146.335C157.858 147.901 156.577 148.454 154.646 147.722C153.841 147.417 153.064 147.008 152.235 146.804C151.935 146.731 151.371 147.037 151.203 147.329C151.061 147.575 151.203 148.175 151.421 148.4C151.953 148.928 152.601 149.343 153.23 149.76C153.443 149.882 153.691 149.926 153.933 149.884C154.648 149.774 155.356 149.618 156.051 149.417C157.211 149.058 158.233 148.439 158.898 147.398C160.252 145.279 161.756 143.234 162.357 140.716C162.432 140.513 162.523 140.317 162.629 140.128C163.423 138.285 164.194 136.476 164.088 134.364C163.889 130.359 164.251 126.402 165.579 122.571C165.999 121.356 165.905 120.106 165.483 118.892C164.978 117.425 163.597 116.915 162.372 117.877C160.263 119.531 158.228 121.278 156.18 123.011C155.79 123.357 155.49 123.81 155.145 124.214V124.214ZM154.914 131.786L155.076 131.698C155.013 131.495 155.011 131.224 154.876 131.097C154.419 130.643 153.912 130.241 153.365 129.899C153.141 129.772 152.67 129.886 152.412 130.049C151.829 130.421 151.619 130.975 151.661 131.716C151.736 132.997 151.883 134.324 151.619 135.562C151.079 138.068 150.478 140.534 151.099 143.107C151.154 143.338 151.076 143.596 151.118 143.835C151.183 144.095 151.266 144.35 151.368 144.598C151.576 144.358 151.948 144.129 151.962 143.878C151.994 143.203 151.947 142.527 151.822 141.864C151.555 140.368 151.848 138.93 152.257 137.496V138.963C152.495 138.826 152.723 138.766 152.736 138.673C152.834 138.049 152.978 137.412 152.937 136.789C152.82 135.01 152.611 133.237 152.477 131.457C152.483 131.316 152.518 131.178 152.582 131.051C152.645 130.925 152.735 130.814 152.846 130.726C152.981 130.626 153.335 130.726 153.541 130.846C154.016 131.128 154.456 131.47 154.914 131.786V131.786ZM159.965 136.237L160.223 136.431C160.566 135.927 161.093 135.464 161.22 134.912C161.53 133.588 161.726 132.24 161.807 130.882C161.955 128.043 162.02 125.198 162.046 122.356C162.046 121.841 161.771 121.287 161.495 120.826C161.394 120.663 160.927 120.709 160.625 120.663C160.597 120.743 160.568 120.826 160.539 120.903C161.489 121.32 161.233 122.091 161.179 122.808C161 125.21 160.814 127.612 160.656 130.015C160.521 132.055 161.116 134.18 159.923 136.093C159.898 136.118 159.942 136.186 159.959 136.23L159.965 136.237ZM155.472 146.438C155.831 146.236 156.378 146.04 156.776 145.68C157.747 144.796 158.422 143.633 158.707 142.351C159.018 141.011 159.279 139.659 159.512 138.303C159.554 138.063 159.349 137.783 159.271 137.522C159.049 137.71 158.707 137.848 158.619 138.09C158.308 138.984 158.056 139.897 157.865 140.824C157.465 142.859 156.897 144.735 154.565 145.354C154.474 145.399 154.394 145.464 154.333 145.545C154.272 145.625 154.23 145.719 154.211 145.819C154.195 145.934 154.402 146.144 154.552 146.21C154.767 146.312 155.019 146.333 155.466 146.438H155.472ZM157.754 132.696L157.498 132.482C157.419 132.651 157.33 132.814 157.231 132.971C155.516 135.323 155.702 138.023 155.847 140.698C155.857 140.861 156.087 141.005 156.214 141.156C156.356 141.013 156.608 140.879 156.621 140.723C156.673 140.159 156.679 139.593 156.641 139.028C156.502 136.957 156.468 134.91 157.637 133.059C157.689 132.943 157.726 132.821 157.747 132.696H157.754ZM149.067 146.03V146.293C149.27 146.368 149.477 146.516 149.678 146.509C150.46 146.48 151.244 146.423 152.021 146.324C152.169 146.306 152.42 145.998 152.389 145.91C152.326 145.716 152.127 145.463 151.945 145.421C150.877 145.211 149.969 145.639 149.06 146.03H149.067Z" fill="white"/>
<path d="M128.736 105.026C130.417 104.894 132.1 105.247 133.586 106.044C135.509 107.061 137.418 108.01 138.839 109.758C139.68 110.795 140.808 111.595 141.685 112.608C142.268 113.281 142.045 113.661 141.15 113.866C139.613 114.218 138.016 114.411 136.556 114.963C135.306 115.436 134.07 115.753 132.769 115.711C130.229 115.628 127.67 115.602 125.158 115.261C122.924 114.958 120.743 114.256 118.537 113.739C117.983 113.61 117.419 113.521 116.863 113.399C116.464 113.311 116.242 113.19 116.497 112.678C117.391 110.871 118.415 109.162 119.906 107.772C121.397 106.382 123.279 105.842 125.19 105.438C126.349 105.192 127.553 105.156 128.736 105.026ZM132.284 108.958C132.468 111.153 132.572 113.195 130.584 114.634C132.868 115.092 135.23 114.995 137.469 114.352C137.987 114.208 138.457 113.926 138.828 113.537C139.517 112.761 139.25 112.053 138.284 111.745C137.904 111.605 137.533 111.442 137.174 111.256C135.592 110.514 134.011 109.77 132.284 108.958V108.958ZM125.995 111.217C126.929 111.217 127.506 110.63 127.507 109.687C127.507 108.709 126.665 107.824 125.736 107.827C125.288 107.84 124.864 108.029 124.554 108.353C124.245 108.677 124.076 109.11 124.084 109.558C124.082 110.508 124.907 111.222 125.995 111.217ZM120.5 108.725C118.846 109.423 117.921 110.637 118.219 111.725C118.617 113.18 119.36 113.64 121.315 113.69C120.546 112.113 119.987 110.529 120.5 108.725ZM117.989 112.861L117.663 111.49C117.349 112.007 117.126 112.375 116.849 112.825C117.155 112.841 117.313 112.854 117.473 112.859C117.613 112.864 117.743 112.861 117.989 112.861V112.861Z" fill="black"/>
<path d="M58.9502 109.788C59.0887 109.411 59.1425 108.973 59.3837 108.675C60.1218 107.78 60.8307 106.814 61.7367 106.115C63.9366 104.42 66.1169 102.645 69.0697 102.367C70.1973 102.257 71.2957 101.86 72.4233 101.736C75.86 101.356 78.9496 102.308 81.5194 104.588C83.2761 106.147 84.1463 108.318 84.9741 110.672C84.2457 110.76 83.589 110.808 82.942 110.922C81.2913 111.215 79.6552 111.67 77.9915 111.811C76.1647 111.966 74.3103 111.908 72.4722 111.823C70.5314 111.735 68.5955 111.52 66.6596 111.334C66.2929 111.298 65.9361 111.129 65.5841 110.995C64.1648 110.457 62.7422 109.923 61.331 109.365C60.6987 109.115 60.1512 109.066 59.6835 109.673C59.5825 109.805 59.3755 109.856 59.2174 109.944L58.9502 109.788ZM70.6389 110.729C68.5352 108.947 69.1251 106.789 69.4738 104.646C69.2639 104.629 69.0531 104.629 68.8432 104.646C66.7508 105.031 64.7612 105.686 63.0371 106.983C62.7585 107.192 62.3853 107.41 62.2973 107.7C62.1946 108.026 62.2321 108.53 62.4325 108.774C62.7784 109.213 63.2258 109.56 63.7362 109.788C65.8562 110.633 68.0675 110.972 70.6389 110.729ZM74.6753 106.167C74.6558 107.176 75.1631 107.689 76.1973 107.705C77.2777 107.721 78.0078 107.125 78.0322 106.206C78.0599 105.13 77.4505 104.475 76.3277 104.549C75.0583 104.633 74.6053 105.106 74.6753 106.17V106.167ZM81.319 105.921C81.2098 106.801 81.2049 107.653 80.9735 108.437C80.7421 109.22 80.281 109.962 79.9062 110.752C82.2478 110.524 83.0512 110.017 83.2533 108.678C83.3951 107.744 82.5151 106.48 81.319 105.921ZM83.3038 110.123H84.3988C84.1593 109.667 83.9605 109.284 83.7128 108.81C83.5564 109.312 83.4407 109.687 83.3038 110.123V110.123Z" fill="black"/>
<path d="M86.0633 94.4242C85.7244 94.3379 85.4767 94.2857 85.2339 94.2124C83.2475 93.6209 81.2969 92.8273 79.2698 92.4818C76.977 92.0907 74.6125 92.1445 72.2888 91.9229C69.4974 91.6556 66.8363 92.3319 64.141 92.868C62.8879 93.119 61.6217 93.3031 60.3686 93.5475C58.7896 93.8555 57.455 94.5725 56.5457 95.9528C56.4104 96.1564 56.2915 96.3715 56.1399 96.6209C55.2926 95.3954 55.9998 93.9305 56.5946 93.1467C58.5745 90.5394 61.7097 90.3227 64.4409 89.2912C67.0204 88.3134 69.6978 87.6616 72.4778 87.6518C74.9221 87.6518 77.3664 87.5915 79.7896 87.8669C81.1747 88.0299 82.4979 88.773 83.8309 89.3009C84.0802 89.4003 84.2822 89.6855 84.4419 89.9283C85.3602 91.2625 85.9186 92.8111 86.0633 94.4242V94.4242Z" fill="black"/>
<path d="M147.171 97.5007C146.562 96.9369 146.013 96.3438 145.379 95.8614C143.818 94.6702 141.916 94.4128 140.063 94.0689C138.703 93.8115 137.327 93.6273 135.958 93.4171C134.329 93.158 132.711 92.8989 131.032 93.0684C128.629 93.3112 126.181 93.2427 123.807 93.6371C121.78 93.9728 119.829 94.7778 117.843 95.3677C117.602 95.4394 117.354 95.4915 117.077 95.5599C117.015 94.0086 117.676 92.7522 118.31 91.5317C119.052 90.1026 120.592 89.7767 121.967 89.2911C123.342 88.8055 124.804 88.755 126.263 88.7843C126.903 88.7973 127.547 88.6409 128.189 88.6409C131.805 88.6258 135.396 89.2457 138.799 90.4725C140.917 91.2433 143.05 91.9994 145.107 92.9168C146.119 93.3682 147.714 95.5241 147.355 96.9434C147.305 97.1488 147.22 97.359 147.171 97.5007Z" fill="black"/>
<path d="M87.5298 129.549C87.3259 129.82 87.1083 130.08 86.878 130.328C85.1295 132.05 84.2707 134.115 84.344 136.587C84.3815 137.728 84.274 138.869 84.3017 140.009C84.3506 142.095 85.2126 143.029 87.2789 143.259C88.1621 143.358 89.0551 143.377 90.1371 143.446C89.7721 143.029 89.5211 142.77 89.3011 142.486C88.4505 141.388 89.0111 139.804 90.3897 139.727C92.5537 139.605 94.7259 139.664 96.6602 140.917C97.8595 141.694 99.0149 142.584 100.545 142.639C101.777 142.683 102.872 142.528 103.996 141.808C105.575 140.796 107.443 140.371 109.333 140.288C109.933 140.27 110.528 140.398 111.069 140.659C111.323 140.783 111.494 141.35 111.455 141.691C111.434 141.895 110.955 142.157 110.653 142.204C109.112 142.444 107.557 142.623 105.83 142.846C107.739 143.837 109.439 144.759 111.561 144.293C113.982 143.764 116.536 140.813 115.798 137.721C115.39 136.015 115.02 134.254 113.635 132.981C113.205 132.585 112.739 132.228 112.349 131.699C112.506 131.692 112.663 131.71 112.814 131.752C116.259 133.392 118.589 137.77 116.953 141.512C115.555 144.709 112.227 146.984 108.54 145.291C107.417 144.776 106.385 144.062 105.28 143.498C104.955 143.335 104.539 143.347 104.161 143.299C104.063 143.288 103.952 143.387 103.85 143.381C101.172 143.218 98.3207 143.832 96.098 141.632C95.9519 141.474 95.7531 141.375 95.539 141.354C94.1083 141.42 92.7069 141.634 91.778 142.889C90.1485 145.09 86.3158 145.6 84.1925 143.853C83.1317 142.982 82.6982 141.763 82.6591 140.465C82.6135 138.898 82.4782 137.25 82.8742 135.771C83.4771 133.528 84.4923 131.389 86.3321 129.81C86.6091 129.57 87.0409 129.508 87.4011 129.365C87.4402 129.419 87.4809 129.482 87.5298 129.549Z" fill="black"/>
<path d="M35.8733 122.216C35.5246 121.988 35.1074 121.822 34.845 121.519C34.4218 120.989 34.0331 120.433 33.6815 119.853C31.889 117.137 30.1845 114.368 28.3154 111.706C27.0688 109.933 25.5843 108.341 23.7136 107.159C22.9885 106.7 22.3448 106.115 21.6701 105.592C19.731 107.047 19.1704 109.108 19.0629 111.284C18.9549 113.098 19.0094 114.918 19.2258 116.723C19.4344 118.353 19.9819 119.932 20.3828 121.533C20.5278 122.109 20.6843 122.682 20.8831 123.435C21.6979 121.012 21.9423 118.634 22.0971 116.257C22.2519 113.879 22.2486 111.504 22.4768 109.115C22.539 109.335 22.581 109.561 22.6022 109.789C22.6283 113.366 22.6707 116.945 22.6414 120.521C22.6292 121.338 22.4788 122.146 22.1965 122.912C21.2399 125.485 21.5365 128.026 22.1721 130.599C22.8809 133.475 24.3996 135.741 26.9678 137.262C28.2829 138.042 29.6093 138.802 31.0417 139.634C30.6229 139.682 30.1796 139.843 29.7951 139.752C29.1408 139.584 28.5081 139.341 27.9097 139.028C25.423 137.78 23.404 136.005 22.0971 133.527C20.9776 131.4 20.5914 129.055 20.4561 126.683C20.3176 124.258 19.9347 121.885 19.0026 119.651C18.0705 117.417 18.0917 115.041 17.9629 112.693C17.8619 110.829 18.0884 108.966 18.9032 107.291C19.392 106.276 20.2427 105.411 21.0216 104.562C21.4241 104.125 21.9765 104.355 22.4344 104.669C26.1107 107.187 29.1579 110.294 31.4409 114.143C32.8211 116.472 34.2796 118.757 35.6908 121.069C35.845 121.364 35.9779 121.669 36.0884 121.983L35.8733 122.216Z" fill="black"/>
<path d="M37.9538 139.207C37.5548 139.232 37.1546 139.229 36.756 139.198C35.7653 139.054 34.7615 138.935 33.8 138.676C32.7376 138.389 31.548 136.721 31.5187 135.653C31.5187 135.508 31.6002 135.36 31.8544 135.114C32.1526 135.588 32.5062 136.035 32.7376 136.54C33.1792 137.518 33.9288 137.821 34.9424 137.901C35.8451 137.971 36.7349 138.253 37.6246 138.432C37.6784 138.445 37.7342 138.447 37.7887 138.438C37.8433 138.429 37.8955 138.409 37.9424 138.38C38.5208 137.837 38.7571 138.287 38.9315 138.741C39.1743 139.349 38.9315 139.84 38.4964 140.281C37.5904 141.205 36.5132 141.81 35.2194 141.911C33.9283 142.025 32.6318 142.064 31.3362 142.028C29.8777 141.966 28.7452 141.231 28.0054 139.895C28.1646 139.938 28.3163 140.005 28.4551 140.094C29.6936 141.2 31.2254 141.287 32.749 141.244C33.8031 141.231 34.8508 141.078 35.8647 140.79C36.598 140.565 37.227 139.986 37.8837 139.538C37.9652 139.471 37.9456 139.25 37.9538 139.207Z" fill="black"/>
<path d="M60.4907 103.059C60.7533 102.905 61.0254 102.768 61.3055 102.649C63.4446 101.875 65.5869 101.108 67.7324 100.348C70.3072 99.4016 73.136 99.4114 75.7042 100.375C77.6727 101.105 79.5434 102.124 81.4076 103.12C82.035 103.455 82.4929 104.11 83.0274 104.62L82.8742 104.811C82.7601 104.778 82.6506 104.731 82.5483 104.671C79.193 102.064 75.3245 100.939 71.1512 100.579C68.6238 100.362 66.3245 100.977 64.0757 102.046C62.966 102.57 61.7944 102.958 60.6537 103.41C60.5901 103.289 60.5396 103.175 60.4907 103.059Z" fill="black"/>
<path d="M141.161 108.248C140.128 107.742 139.023 107.343 138.073 106.713C135.251 104.835 132.171 104.268 128.845 104.516C125.435 104.775 122.221 105.601 119.311 107.449C119.198 107.513 119.079 107.567 118.957 107.612L118.806 107.431C119.308 106.993 119.746 106.434 120.321 106.139C122.914 104.814 125.604 103.722 128.554 103.532C130.55 103.401 132.497 103.675 134.334 104.535C136.392 105.503 138.455 106.462 140.511 107.434C140.8 107.589 141.079 107.76 141.347 107.946L141.161 108.248Z" fill="black"/>
<path d="M81.8102 113.241C78.3686 114.534 66.1193 115.603 64.7407 114.002L81.8102 113.241Z" fill="black"/>
<path d="M120.979 115.155C123.629 115.7 126.258 116.49 128.935 116.723C131.585 116.954 134.283 116.625 136.92 116.542C134.845 118.501 123.57 117.653 120.979 115.155Z" fill="black"/>
<path d="M37.6655 120.686C37.6509 121.96 37.3771 123.179 36.3749 124.072C36.034 124.36 35.7656 124.724 35.5912 125.135C35.4168 125.545 35.3415 125.991 35.3711 126.437C35.4314 128.769 36.7188 130.486 38.1789 132.122C38.2669 132.22 38.3711 132.305 38.4673 132.394L38.4314 132.645C38.1332 132.604 37.7177 132.676 37.5564 132.507C35.7166 130.571 34.281 128.433 34.6411 125.579C34.7112 125.024 34.967 124.346 35.3793 124.009C36.2299 123.308 36.6308 122.402 37.0088 121.444C37.1245 121.152 37.2696 120.872 37.3999 120.587L37.6655 120.686Z" fill="black"/>
<path d="M31.0362 119.772C30.94 120.041 30.8993 120.352 30.7363 120.57C29.8971 121.696 29.1068 122.879 28.1437 123.888C27.0536 125.029 26.0074 126.114 25.8526 127.786C25.833 128.003 25.5267 128.192 25.3539 128.395C25.2757 128.133 25.1225 127.871 25.1307 127.612C25.1763 126.182 26.0286 125.167 26.9232 124.157C28.1796 122.746 29.4017 121.305 30.6402 119.878C30.7105 119.805 30.7845 119.736 30.8618 119.671L31.0362 119.772Z" fill="black"/>
<path d="M29.6187 135.68C28.8039 136.291 28.2319 135.922 27.6779 135.548C26.2113 134.56 25.3265 133.103 24.5247 131.594C24.3259 131.218 24.1662 130.822 23.9902 130.434L24.1842 130.25C24.4237 130.491 24.7186 130.698 24.8963 130.98C25.7648 132.355 26.6366 133.726 27.9924 134.686C28.4813 135.031 29.0125 135.311 29.6187 135.68Z" fill="black"/>
<path d="M29.8823 131.699L32.3641 126.779C32.9834 127.613 31.3815 131.029 29.8823 131.699Z" fill="black"/>
<path d="M155.144 124.214C155.49 123.81 155.796 123.35 156.192 123.01C158.236 121.276 160.266 119.529 162.384 117.875C163.61 116.914 164.992 117.422 165.495 118.89C165.912 120.104 166.012 121.354 165.591 122.57C164.27 126.401 163.902 130.357 164.1 134.363C164.206 136.481 163.436 138.283 162.642 140.126C162.535 140.315 162.444 140.512 162.37 140.715C161.769 143.228 160.264 145.277 158.91 147.396C158.245 148.434 157.224 149.056 156.063 149.415C155.368 149.616 154.661 149.773 153.945 149.883C153.704 149.924 153.455 149.88 153.243 149.759C152.614 149.342 151.965 148.926 151.434 148.398C151.207 148.173 151.074 147.574 151.216 147.327C151.379 147.036 151.947 146.729 152.247 146.803C153.077 147.006 153.854 147.415 154.659 147.72C156.59 148.453 157.864 147.899 158.848 146.333C160.418 143.83 161.945 141.282 162.611 138.349C162.754 137.826 162.842 137.29 162.873 136.748C162.901 134.496 162.844 132.243 162.89 129.991C162.947 127.22 163.216 124.481 164.148 121.832C164.407 121.098 164.428 120.235 164.364 119.446C164.288 118.491 163.788 118.216 162.971 118.68C161.895 119.3 160.865 119.998 159.89 120.766C158.457 121.882 157.092 123.085 155.69 124.24C155.563 124.313 155.425 124.364 155.281 124.392L155.144 124.214Z" fill="black"/>
<path d="M154.913 131.786C154.455 131.47 154.012 131.135 153.534 130.848C153.335 130.731 152.974 130.628 152.838 130.727C152.728 130.816 152.638 130.927 152.575 131.053C152.511 131.179 152.475 131.318 152.47 131.459C152.599 133.238 152.812 135.011 152.93 136.791C152.97 137.413 152.827 138.05 152.729 138.675C152.716 138.767 152.488 138.828 152.25 138.965V137.498C151.841 138.935 151.548 140.369 151.815 141.865C151.94 142.529 151.987 143.205 151.955 143.879C151.94 144.13 151.569 144.368 151.36 144.6C151.259 144.352 151.175 144.097 151.111 143.837C151.069 143.601 151.147 143.34 151.091 143.109C150.479 140.536 151.072 138.07 151.611 135.564C151.875 134.333 151.729 132.999 151.654 131.718C151.611 130.977 151.817 130.423 152.405 130.051C152.662 129.888 153.133 129.774 153.358 129.901C153.905 130.243 154.412 130.644 154.869 131.099C155.004 131.226 155.006 131.496 155.069 131.7L154.913 131.786Z" fill="black"/>
<path d="M159.958 136.23C159.942 136.18 159.898 136.111 159.916 136.082C161.109 134.169 160.514 132.044 160.649 130.004C160.812 127.6 160.993 125.198 161.172 122.796C161.226 122.079 161.482 121.308 160.532 120.891C160.561 120.811 160.59 120.728 160.618 120.652C160.92 120.702 161.387 120.652 161.488 120.815C161.764 121.276 162.044 121.83 162.039 122.345C162.013 125.187 161.948 128.032 161.8 130.871C161.719 132.228 161.523 133.576 161.213 134.9C161.086 135.453 160.561 135.916 160.216 136.419L159.958 136.23Z" fill="black"/>
<path d="M155.465 146.438C155.019 146.333 154.766 146.312 154.553 146.21C154.403 146.136 154.196 145.934 154.212 145.819C154.231 145.719 154.273 145.625 154.334 145.545C154.396 145.464 154.475 145.399 154.566 145.354C156.898 144.732 157.467 142.859 157.866 140.824C158.057 139.897 158.309 138.984 158.62 138.09C158.7 137.855 159.042 137.71 159.272 137.523C159.358 137.783 159.556 138.064 159.513 138.303C159.28 139.659 159.024 141.011 158.708 142.351C158.421 143.635 157.744 144.798 156.769 145.682C156.371 146.04 155.824 146.236 155.465 146.438Z" fill="black"/>
<path d="M157.747 132.696C157.723 132.82 157.684 132.94 157.63 133.054C156.462 134.905 156.489 136.952 156.634 139.023C156.673 139.588 156.666 140.155 156.615 140.718C156.602 140.881 156.349 141.008 156.207 141.152C156.08 141 155.85 140.853 155.841 140.694C155.696 138.013 155.515 135.316 157.224 132.966C157.324 132.809 157.413 132.646 157.491 132.477L157.747 132.696Z" fill="black"/>
<path d="M149.06 146.03C149.969 145.639 150.877 145.216 151.934 145.426C152.117 145.463 152.316 145.716 152.379 145.915C152.41 146.009 152.159 146.311 152.011 146.329C151.234 146.428 150.45 146.492 149.668 146.514C149.467 146.514 149.26 146.373 149.057 146.298L149.06 146.03Z" fill="black"/>
<path d="M92.8691 164.689C92.9441 163.967 92.993 163.24 93.1054 162.525C93.1836 162.023 93.5095 161.819 94.0424 161.873C96.2064 162.106 97.2934 163.641 96.7768 165.794C96.7576 165.865 96.7226 165.932 96.6744 165.988C96.6262 166.044 96.566 166.089 96.4981 166.119C95.5758 166.313 94.6502 166.491 93.7279 166.646C93.1022 166.748 92.8251 166.483 92.9034 165.831C92.9256 165.451 92.9256 165.07 92.9034 164.69L92.8691 164.689Z" fill="white"/>
<path d="M104.978 165.399V165.562C104.987 167.016 104.67 167.291 103.169 167.123C103.089 167.113 103.006 167.092 102.929 167.084C101.091 166.877 100.741 166.366 101.22 164.526C101.356 164.032 101.524 163.547 101.725 163.075C102.152 162.042 102.985 161.922 103.894 162.611C104.862 163.336 105.116 164.268 104.978 165.399Z" fill="white"/>
<path d="M109.343 166.846C108.347 166.898 107.459 166.977 106.572 166.97C106.364 166.97 105.997 166.706 105.976 166.532C105.841 165.412 105.916 164.322 106.561 163.321C106.916 162.771 107.188 162.655 107.764 163.093C109.005 164.037 109.225 165.35 109.343 166.846Z" fill="white"/>
<path d="M98.3077 161.93C98.8389 162.22 99.3245 162.419 99.7254 162.719C100.322 163.172 100.661 163.755 100.348 164.557C100.17 165.009 100.029 165.475 99.9291 165.95C99.8036 166.566 99.4207 166.796 98.8748 166.647C98.3289 166.499 97.5712 166.592 97.6135 165.627C97.6543 164.395 97.4783 163.137 98.3077 161.93Z" fill="white"/>
<path d="M92.0398 166.193C91.6438 166.193 91.2984 166.211 90.9546 166.193C89.6982 166.111 89.7079 166.106 89.6509 164.83C89.633 164.399 89.5271 163.972 89.5157 163.54C89.4945 162.847 89.8057 162.226 90.4673 162.111C90.803 162.05 91.2821 162.481 91.608 162.789C92.6737 163.784 92.0789 165.003 92.0398 166.193Z" fill="white"/>
<path d="M109.958 165.347C110.035 164.817 110.025 164.337 110.188 163.924C110.315 163.599 110.762 163.088 110.887 163.136C111.376 163.322 111.922 163.615 112.232 164.027C112.473 164.353 112.452 164.909 112.445 165.362C112.445 165.728 112.341 166.372 112.18 166.408C111.537 166.551 110.873 166.566 110.224 166.452C110.063 166.423 110.035 165.699 109.958 165.347Z" fill="white"/>
<path d="M89.0306 164.821C88.3674 164.914 87.8361 164.984 87.3049 165.06C87.1846 165.05 87.0659 165.025 86.9513 164.987C86.8812 164.301 86.7411 163.582 86.7655 162.868C86.7769 162.575 87.0914 162.168 87.3685 162.054C87.5933 161.954 88.0203 162.138 88.2745 162.314C89.1675 162.922 88.8041 163.92 89.0306 164.821Z" fill="white"/>
<path d="M84.2492 165.034C84.1563 164.35 83.9755 163.713 84.0243 163.093C84.0472 162.813 84.6338 162.3 84.7772 162.357C85.2465 162.546 85.8918 162.88 85.9977 163.282C86.3416 164.584 86.1085 164.772 84.2492 165.034Z" fill="white"/>
<path d="M92.5991 167.638C92.8746 167.519 93.1583 167.419 93.4481 167.34C94.0543 167.218 94.6801 167.177 95.2765 167.03C96.4693 166.731 96.7871 166.967 96.7659 168.425L92.6562 168.006C92.6366 167.879 92.6187 167.759 92.5991 167.638Z" fill="white"/>
<path d="M104.267 168.736C102.963 168.639 101.734 168.559 100.511 168.433C100.432 168.433 100.388 168.076 100.333 167.884C100.333 167.884 100.379 167.861 100.398 167.843C100.942 167.355 103.833 167.933 104.267 168.736Z" fill="white"/>
<path d="M113.215 166.295C113.259 165.777 113.225 165.228 113.378 164.739C113.453 164.505 113.876 164.265 114.157 164.25C114.344 164.239 114.677 164.576 114.738 164.817C115.042 165.979 114.58 166.457 113.215 166.295Z" fill="white"/>
<path d="M107.535 168.428C105.754 169.113 105.075 168.956 104.511 167.777C105.705 167.382 107.217 167.692 107.535 168.428Z" fill="white"/>
<path d="M88.9079 165.691C88.9307 166.817 88.1893 167.082 86.3121 166.623C86.1687 165.725 86.7911 165.789 88.9079 165.691Z" fill="white"/>
<path d="M83.42 163.238V165.169C82.9312 165.08 82.3885 165.129 82.1164 164.879C81.9111 164.694 81.8899 163.975 82.0838 163.76C82.3445 163.465 82.8904 163.424 83.42 163.238Z" fill="white"/>
<path d="M97.4062 168.458C97.4193 167.48 97.8413 167.126 98.5828 167.386C99.0195 167.539 99.7626 167.415 99.6518 168.161C99.629 168.324 98.85 168.386 98.4133 168.448C98.0782 168.474 97.7418 168.477 97.4062 168.458V168.458Z" fill="white"/>
<path d="M107.946 167.485L110.252 167.633C108.953 168.523 108.166 168.468 107.946 167.485Z" fill="white"/>
<path d="M85.6086 166.572L83.9155 166.009C85.1735 165.458 85.8042 165.37 85.6086 166.572Z" fill="white"/>
<path d="M88.7383 167.029C89.439 166.646 90.7182 166.907 91.3684 167.558L88.7383 167.029Z" fill="white"/>
<path d="M110.7 167.335L113.028 166.96C111.906 167.733 110.978 167.826 110.7 167.335Z" fill="white"/>
<path d="M97.8723 169.128C99.4131 169.128 100.662 169.115 100.662 169.1C100.662 169.085 99.4131 169.072 97.8723 169.072C96.3315 169.072 95.0825 169.085 95.0825 169.1C95.0825 169.115 96.3315 169.128 97.8723 169.128Z" fill="white"/>
<path d="M132.284 108.958C134.011 109.773 135.592 110.514 137.172 111.256C137.532 111.442 137.902 111.605 138.282 111.745C139.248 112.051 139.516 112.76 138.826 113.537C138.455 113.926 137.986 114.208 137.467 114.352C135.228 114.995 132.867 115.092 130.583 114.634C132.572 113.193 132.468 111.153 132.284 108.958Z" fill="white"/>
<path d="M125.995 111.217C124.907 111.217 124.082 110.508 124.084 109.558C124.076 109.11 124.245 108.677 124.554 108.353C124.864 108.029 125.288 107.84 125.736 107.827C126.665 107.827 127.511 108.712 127.507 109.687C127.506 110.63 126.929 111.213 125.995 111.217Z" fill="white"/>
<path d="M120.5 108.725C119.987 110.529 120.546 112.118 121.315 113.69C119.359 113.64 118.619 113.18 118.219 111.725C117.92 110.637 118.846 109.423 120.5 108.725Z" fill="white"/>
<path d="M117.989 112.861C117.743 112.861 117.613 112.861 117.483 112.861C117.32 112.861 117.157 112.843 116.858 112.827C117.134 112.377 117.357 112.012 117.673 111.492L117.989 112.861Z" fill="white"/>
<path d="M70.6395 110.73C68.0681 110.974 65.86 110.633 63.7432 109.793C63.2329 109.565 62.7855 109.218 62.4396 108.779C62.2392 108.534 62.2017 108.026 62.3044 107.705C62.3989 107.415 62.7655 107.197 63.0442 106.988C64.7682 105.684 66.7579 105.033 68.8502 104.651C69.0601 104.634 69.271 104.634 69.4809 104.651C69.1256 106.789 68.5357 108.947 70.6395 110.73Z" fill="white"/>
<path d="M74.6754 106.17C74.6053 105.112 75.0584 104.633 76.3278 104.552C77.4505 104.478 78.06 105.134 78.0323 106.209C78.0078 107.128 77.2778 107.725 76.1974 107.708C75.1632 107.692 74.6559 107.179 74.6754 106.17Z" fill="white"/>
<path d="M81.3196 105.921C82.5157 106.48 83.3956 107.744 83.2538 108.678C83.0518 110.017 82.2484 110.524 79.9067 110.752C80.2815 109.962 80.7411 109.232 80.9741 108.437C81.2071 107.642 81.2104 106.801 81.3196 105.921Z" fill="white"/>
<path d="M83.3047 110.123C83.4416 109.687 83.5573 109.308 83.7137 108.81C83.9614 109.284 84.1602 109.667 84.3997 110.123H83.3047Z" fill="white"/>
<path d="M58.5197 164.125C58.5197 164.125 45.0117 151.439 40.5177 145.418L42.2572 144.488C42.2572 144.488 54.0891 156.212 59.5164 160.414L58.5197 164.125Z" fill="black"/>
<path d="M45.6798 146.844C45.3557 134.907 45.0571 122.641 45.0571 122.641C45.0571 122.641 57.5464 119.793 67.4309 118.697C77.3155 117.601 75.4645 118.756 82.2303 117.379C88.8016 116.044 98.0695 114.016 100.504 114.069L100.528 114.071L100.701 114.087L100.724 114.089C103.13 114.467 111.888 118.119 118.116 120.604C124.527 123.165 122.912 121.698 132.443 124.539C141.974 127.38 153.759 132.409 153.759 132.409C153.759 132.409 151.282 144.426 148.831 156.113C146.38 167.801 148.612 181.895 148.612 181.895C148.612 181.895 142.888 183.365 136.44 185.102C129.992 186.838 125.105 194.338 116.53 200.512C108.29 206.432 93.78 203.578 92.596 203.332C91.3869 203.363 76.6008 203.581 69.5478 196.29C62.1927 188.681 58.7394 180.432 52.7041 177.577C46.6688 174.722 41.3072 172.252 41.3072 172.252C41.3072 172.252 46.0195 158.783 45.6798 146.844Z" fill="#2A2B2B"/>
<path d="M122.928 142.956C127.479 144.838 129.425 146.515 129.425 146.515C129.425 146.515 118.436 146.264 111.62 140.449C104.804 134.634 105.983 130.266 107.566 130.143C109.149 130.02 118.383 141.057 122.928 142.956Z" fill="#4C4C4C"/>
<path d="M76.5473 145.674C83.4382 144.428 90.4844 144.07 97.495 144.611L98.267 144.68C105.262 145.398 112.131 147.006 118.689 149.461C130.354 153.882 141.86 160.082 141.86 160.082C141.86 160.082 136.899 159.861 132.455 159.686C128.012 159.512 117.313 156.079 113.192 155.26C109.859 154.592 101.058 148.006 97.8154 145.505C92.7507 146.442 83.0275 149.423 79.6334 149.479C75.4324 149.551 65.617 153.905 61.2021 153.283C56.7871 152.662 51.878 151.996 51.878 151.996C51.878 151.996 64.281 147.945 76.5473 145.674Z" fill="#3A3A3A"/>
<path d="M107.598 146.189C111.37 147.012 115.073 148.105 118.674 149.46C127.453 152.786 136.141 157.123 139.9 159.067C137.11 158.731 131.289 156.26 127.146 155.343C124.701 154.792 122.503 155.044 120.242 154.226C112.82 151.519 110.586 149.576 107.598 146.189Z" fill="#4F4F4F"/>
<path d="M66.0927 150.169C63.7304 151.04 61.1148 150.573 58.8203 149.91C63.5315 148.577 70.0623 146.87 76.5469 145.678C83.4378 144.432 90.484 144.074 97.4945 144.614L97.9346 144.654C96.1085 145.403 92.4988 146.213 85.4479 146.78C68.8968 148.105 69.3441 148.974 66.0927 150.169Z" fill="#636363"/>
<path d="M70.1153 164.726C80.0161 165.829 89.2349 170.755 95.5233 170.794C101.812 170.833 111.667 168.673 121.606 169.353C132.821 170.121 141.717 170.199 141.717 170.199C141.717 170.199 137.743 172.206 135.197 172.739C131.187 173.583 127.832 175.929 121.365 175.105C114.899 174.28 112.356 179.108 104.294 181.27C99.7566 182.486 95.2868 182.302 92.7207 181.673C90.1546 181.045 88.7195 179.219 84.4721 177.209C76.9286 173.645 74.0318 170.851 71.2192 170.064C68.4066 169.278 59.9452 167.181 56.1502 165.636C53.7366 164.653 50.1875 161.974 50.1875 161.974C50.1875 161.974 58.9549 163.48 70.1153 164.726Z" fill="#383838"/>
<path d="M112.443 173.032C108.105 174.627 104.233 174.942 103.929 174.418C103.626 173.893 112.04 171.674 107.55 171.105C105.957 170.903 104.017 170.67 102.326 170.349C107.954 169.768 114.757 168.888 121.602 169.36C131.587 170.043 139.738 170.179 141.398 170.2C139.633 170.869 137.055 171.544 133.343 171.932C123.995 172.903 116.79 171.427 112.443 173.032Z" fill="#4F4F4F"/>
<path d="M67.9108 166.869C74.9468 168.33 75.6673 168.063 79.67 170.242C83.6726 172.421 85.8343 173.609 87.0315 173.883C88.2288 174.156 87.5494 175.914 83.8684 174.095C80.1875 172.277 73.3284 168.847 73.5724 170.029C73.662 170.461 74.4651 171.266 75.1728 172.051C73.6091 171.093 72.3991 170.399 71.211 170.067C69.6926 169.644 66.5317 168.837 63.3474 167.943C61.4714 166.569 59.4437 165.393 57.3007 164.436C54.7691 163.38 52.6557 162.737 51.2795 162.16C52.8747 162.422 56.1166 162.934 60.3448 163.513C62.5727 165.155 65.1593 166.303 67.9108 166.869V166.869Z" fill="#717270"/>
<path d="M75.1214 187.78C81.0658 189.979 87.2806 191.435 93.6077 192.111C99.954 192.574 106.329 192.249 112.57 191.145C121.372 189.454 128.344 181.885 128.344 181.885C128.344 181.885 123.689 189.902 114.39 194.277C106.841 197.825 97.1263 196.776 93.2239 196.425C89.3216 196.074 79.5751 195.375 72.7802 190.538C64.4017 184.574 61.2591 175.856 61.2591 175.856C61.2591 175.856 66.7621 184.547 75.1214 187.78Z" fill="#424242"/>
<path d="M115.711 191.181C106.544 193.995 102.109 192.772 97.7295 192.879C93.3502 192.986 88.1769 192.186 86.4734 191.702C84.7698 191.217 84.0898 190.991 81.2998 190.906C79.1657 190.839 77.1609 189.333 74.6293 187.585C74.7907 187.651 74.9518 187.721 75.1173 187.783C81.0632 189.981 87.2794 191.436 93.6078 192.111C99.9541 192.574 106.329 192.249 112.57 191.145C121.007 189.525 127.742 182.515 128.304 181.936C126.566 184.347 122.425 189.118 115.711 191.181Z" fill="#6D6D6D"/>
<path d="M79.4285 134.003C74.816 134.973 69.881 139.099 69.881 139.099C69.881 139.099 75.6291 140.69 83.0393 136.514C85.0891 135.355 90.9111 136.772 91.9106 135.695C94.5218 132.877 93.3473 129.06 92.2775 128.798C90.8092 128.423 84.0413 133.029 79.4285 134.003Z" fill="#494949"/>
<path d="M45.4205 146.821C45.0963 134.883 44.7978 122.617 44.7978 122.617C44.7978 122.617 57.3064 119.772 67.1755 118.674C77.0445 117.576 75.2091 118.733 81.9748 117.356C88.7405 115.98 97.9106 113.567 100.643 113.813C103.376 114.058 111.969 118.067 118.381 120.628C124.793 123.189 123.178 121.722 132.708 124.563C142.239 127.404 154.025 132.432 154.025 132.432C154.025 132.432 151.548 144.449 149.097 156.137C146.646 167.825 148.877 181.918 148.877 181.918C148.877 181.918 143.154 183.389 136.706 185.125C130.258 186.862 125.37 194.361 116.796 200.535C108.222 206.709 96.8479 204.2 92.5558 203.814C88.2636 203.428 76.6491 203.858 69.2924 196.267C61.9356 188.676 58.4724 180.407 52.4448 177.553C46.4172 174.699 41.0401 172.228 41.0401 172.228C41.0401 172.228 45.7447 158.758 45.4205 146.821ZM55.3559 174.343C57.5637 176.014 61.499 181.843 62.5566 184.667C63.6141 187.49 68.2892 190.889 73.636 195.604C75.7277 197.442 89.7967 199.531 92.9194 199.811C96.042 200.092 110.258 200.544 112.644 199.109C118.74 195.441 123.946 192.93 125.496 190.322C127.045 187.715 131.946 182.716 134.422 181.448C136.898 180.179 142.75 179.217 142.75 179.217C142.75 179.217 141.937 162.026 142.639 157.114C143.341 152.203 144.959 139.958 144.959 139.958C144.959 139.958 134.807 133.338 125.01 131.467C115.213 129.596 109.41 127.101 105.643 125.29C103.777 124.458 101.799 123.878 99.7667 123.569C97.7122 123.511 95.6622 123.729 93.6776 124.215C89.6439 125.325 83.4867 126.771 73.513 126.869C63.5392 126.967 52.3698 131.667 52.3698 131.667C52.3698 131.667 51.785 144.02 51.5938 148.962C51.4026 153.905 47.5439 170.691 47.5439 170.691C47.5439 170.691 53.1494 172.657 55.3559 174.343Z" fill="#111111"/>
<path d="M147.639 131.531C147.639 131.531 144.145 152.492 143.644 160.445C143.227 167.035 142.974 171.8 143.304 173.976C143.633 176.152 144.052 182.972 144.052 182.972" stroke="#7A7A7A" stroke-width="2.02" stroke-miterlimit="10" stroke-dasharray="4.04 5.39"/>
<path d="M150.659 133.124C150.659 133.124 149.59 141.129 148.859 145.368C148.127 149.606 147.22 155.806 146.911 159.251C146.601 162.695 145.916 174.214 146.371 176.899C146.827 179.584 146.971 181.916 146.971 181.916" stroke="#7A7A7A" stroke-width="2.02" stroke-miterlimit="10" stroke-dasharray="4.04 5.39"/>
<path d="M52.4954 124.469C52.4954 124.469 68.7276 120.802 72.1977 121.114C75.9782 121.454 79.7861 121.181 83.457 120.306C87.5621 119.353 95.4586 117.084 99.4458 117.442L101.179 117.598C105.166 117.957 112.532 121.597 116.397 123.267C119.853 124.782 123.551 125.729 127.332 126.068C130.806 126.38 146.121 132.882 146.121 132.882" stroke="#7A7A7A" stroke-width="2.02" stroke-miterlimit="10" stroke-dasharray="4.04 5.39"/>
<path d="M53.3876 128.187C53.3876 128.187 62.4108 125.028 68.7126 124.917C75.0144 124.806 80.0865 124.783 83.8298 123.96C87.573 123.136 91.1756 121.972 94.1943 121.419C96.0392 121.085 97.9314 121.031 99.8 121.26L100.147 121.291C102.027 121.399 103.879 121.789 105.635 122.447C108.51 123.534 111.844 125.321 115.38 126.795C118.917 128.269 123.902 129.214 130.085 130.432C136.267 131.651 144.582 136.367 144.582 136.367" stroke="#7A7A7A" stroke-width="2.02" stroke-miterlimit="10" stroke-dasharray="4.04 5.39"/>
<path d="M51.2423 122.869C51.2423 122.869 50.9438 144.117 50.0186 152.032C49.2541 158.591 48.6537 163.324 47.9451 165.407C47.2365 167.49 45.6052 174.126 45.6052 174.126" stroke="#7A7A7A" stroke-width="2.02" stroke-miterlimit="10" stroke-dasharray="4.04 5.39"/>
<path d="M47.9874 123.898C47.9874 123.898 47.6126 131.965 47.5725 136.266C47.5323 140.567 47.3236 146.83 47.014 150.274C46.7045 153.718 45.3248 165.175 44.3982 167.735C43.4717 170.296 42.9136 172.566 42.9136 172.566" stroke="#7A7A7A" stroke-width="2.02" stroke-miterlimit="10" stroke-dasharray="4.04 5.39"/>
<path d="M48.0951 173.443C48.0951 173.443 51.8661 175.255 55.3498 177.321C58.5133 179.181 60.3027 183.473 61.8998 186.095C63.4969 188.717 67.1346 192.273 69.2736 194.45C71.4126 196.626 74.8582 199.418 78.4538 200.238C82.0494 201.058 92.1718 202.207 92.1718 202.207L93.2101 202.3C93.2101 202.3 103.376 202.967 107.059 202.809C110.743 202.65 114.612 200.508 117.136 198.751C119.66 196.993 123.842 194.143 125.885 191.845C127.928 189.547 130.452 185.627 133.898 184.379C137.693 182.982 141.728 181.857 141.728 181.857" stroke="#7A7A7A" stroke-width="2.02" stroke-miterlimit="10" stroke-dasharray="4.04 5.39"/>
<g style="mix-blend-mode:multiply">
<path d="M96.4778 195.164C98.0218 192.574 94.5742 193.008 93.236 190.406C91.8979 187.804 93.4889 181.746 96.6366 178.804C99.7843 175.861 98.4902 172.769 97.3354 171.027C96.1807 169.285 94.5435 172.912 93.8597 168.874C93.1759 164.835 94.3751 160.237 97.892 156.087C101.409 151.937 99.9833 138.659 102.793 130.727C104.497 125.924 105.075 119.716 105.17 115.409C108.937 116.786 114.232 118.966 118.393 120.629C124.805 123.19 123.19 121.723 132.721 124.564C142.251 127.405 154.037 132.434 154.037 132.434C154.037 132.434 151.56 144.45 149.109 156.138C146.658 167.826 148.89 181.919 148.89 181.919C148.89 181.919 143.166 183.39 136.718 185.126C130.27 186.863 125.382 194.363 116.808 200.537C108.568 206.457 94.0579 203.603 92.8738 203.357L92.6946 203.359C91.2138 197.799 94.9796 197.677 96.4778 195.164Z" fill="#A5A5A5"/>
</g>
<path d="M48.1757 124.416C48.1757 124.416 38.0725 108.881 32.9394 103.395L31.7173 104.943C31.7173 104.943 41.1687 118.658 44.3463 124.742L48.1757 124.416Z" fill="black"/>
<path d="M144.184 136.77C144.184 136.77 152.325 120.123 156.754 114.054L158.155 115.442C158.155 115.442 150.44 130.204 148.025 136.628L144.184 136.77Z" fill="black"/>
</svg>
